<mxGraphModel><root><mxCell id="0"/><mxCell id="1" parent="0"/><mxCell id="2" value="Usuarios" style="whiteSpace=wrap;strokeWidth=2;" vertex="1" parent="1"><mxGeometry x="475" y="8" width="120" height="49" as="geometry"/></mxCell><mxCell id="3" value="Reservas" style="whiteSpace=wrap;strokeWidth=2;" vertex="1" parent="1"><mxGeometry x="383" y="252" width="122" height="49" as="geometry"/></mxCell><mxCell id="4" value="Taxistas" style="whiteSpace=wrap;strokeWidth=2;" vertex="1" parent="1"><mxGeometry x="703" y="130" width="118" height="49" as="geometry"/></mxCell><mxCell id="5" value="Servicio de Transporte" style="whiteSpace=wrap;strokeWidth=2;" vertex="1" parent="1"><mxGeometry x="13" y="374" width="220" height="49" as="geometry"/></mxCell><mxCell id="6" value="Detalles de Reserva" style="whiteSpace=wrap;strokeWidth=2;" vertex="1" parent="1"><mxGeometry x="533" y="374" width="201" height="49" as="geometry"/></mxCell><mxCell id="7" value="Origen" style="whiteSpace=wrap;strokeWidth=2;" vertex="1" parent="1"><mxGeometry x="308" y="496" width="107" height="49" as="geometry"/></mxCell><mxCell id="8" value="Destino" style="whiteSpace=wrap;strokeWidth=2;" vertex="1" parent="1"><mxGeometry x="465" y="496" width="114" height="49" as="geometry"/></mxCell><mxCell id="9" value="Tiempo de Espera" style="whiteSpace=wrap;strokeWidth=2;" vertex="1" parent="1"><mxGeometry x="629" y="496" width="189" height="49" as="geometry"/></mxCell><mxCell id="10" value="Forma de Pago" style="whiteSpace=wrap;strokeWidth=2;" vertex="1" parent="1"><mxGeometry x="868" y="496" width="166" height="49" as="geometry"/></mxCell><mxCell id="11" value="Tarjeta de Crédito" style="whiteSpace=wrap;strokeWidth=2;" vertex="1" parent="1"><mxGeometry x="564" y="618" width="193" height="49" as="geometry"/></mxCell><mxCell id="12" value="Efectivo" style="whiteSpace=wrap;strokeWidth=2;" vertex="1" parent="1"><mxGeometry x="1005" y="618" width="119" height="49" as="geometry"/></mxCell><mxCell id="13" value="Calificación" style="whiteSpace=wrap;strokeWidth=2;" vertex="1" parent="1"><mxGeometry x="690" y="252" width="144" height="49" as="geometry"/></mxCell><mxCell id="14" value="Feedback" style="whiteSpace=wrap;strokeWidth=2;" vertex="1" parent="1"><mxGeometry x="884" y="252" width="129" height="49" as="geometry"/></mxCell><mxCell id="15" value="Reputación del Taxista" style="whiteSpace=wrap;strokeWidth=2;" vertex="1" parent="1"><mxGeometry x="838" y="374" width="221" height="49" as="geometry"/></mxCell><mxCell id="16" value="Plataforma de Reservas" style="whiteSpace=wrap;strokeWidth=2;" vertex="1" parent="1"><mxGeometry x="8" y="496" width="229" height="49" as="geometry"/></mxCell><mxCell id="17" value="Usuarios" style="whiteSpace=wrap;strokeWidth=2;" vertex="1" parent="1"><mxGeometry x="9" y="618" width="120" height="49" as="geometry"/></mxCell><mxCell id="18" value="Taxistas" style="whiteSpace=wrap;strokeWidth=2;" vertex="1" parent="1"><mxGeometry x="396" y="618" width="118" height="49" as="geometry"/></mxCell><mxCell id="19" value="realizan" style="curved=1;startArrow=none;endArrow=block;exitX=0.11;exitY=1;entryX=0.42;entryY=0;" edge="1" parent="1" source="2" target="3"><mxGeometry relative="1" as="geometry"><Array as="points"><mxPoint x="418" y="94"/><mxPoint x="418" y="216"/></Array></mxGeometry></mxCell><mxCell id="20" value="pueden ser" style="curved=1;startArrow=none;endArrow=block;exitX=1.01;exitY=0.83;entryX=0.5;entryY=0;" edge="1" parent="1" source="2" target="4"><mxGeometry relative="1" as="geometry"><Array as="points"><mxPoint x="762" y="94"/></Array></mxGeometry></mxCell><mxCell id="21" value="pertenece a" style="curved=1;startArrow=none;endArrow=block;exitX=0;exitY=0.74;entryX=0.5;entryY=0;" edge="1" parent="1" source="3" target="5"><mxGeometry relative="1" as="geometry"><Array as="points"><mxPoint x="122" y="338"/></Array></mxGeometry></mxCell><mxCell id="22" value="aceptan" style="curved=1;startArrow=none;endArrow=block;exitX=0.07;exitY=1;entryX=1;entryY=0.1;" edge="1" parent="1" source="4" target="3"><mxGeometry relative="1" as="geometry"><Array as="points"><mxPoint x="635" y="216"/></Array></mxGeometry></mxCell><mxCell id="23" value="incluye" style="curved=1;startArrow=none;endArrow=block;exitX=1;exitY=0.9;entryX=0.5;entryY=0;" edge="1" parent="1" source="3" target="6"><mxGeometry relative="1" as="geometry"><Array as="points"><mxPoint x="633" y="338"/></Array></mxGeometry></mxCell><mxCell id="24" value="consiste en" style="curved=1;startArrow=none;endArrow=block;exitX=0;exitY=0.96;entryX=0.5;entryY=0;" edge="1" parent="1" source="6" target="7"><mxGeometry relative="1" as="geometry"><Array as="points"><mxPoint x="361" y="460"/></Array></mxGeometry></mxCell><mxCell id="25" value="consiste en" style="curved=1;startArrow=none;endArrow=block;exitX=0.28;exitY=1;entryX=0.5;entryY=0;" edge="1" parent="1" source="6" target="8"><mxGeometry relative="1" as="geometry"><Array as="points"><mxPoint x="522" y="460"/></Array></mxGeometry></mxCell><mxCell id="26" value="incluye" style="curved=1;startArrow=none;endArrow=block;exitX=0.68;exitY=1;entryX=0.5;entryY=0;" edge="1" parent="1" source="6" target="9"><mxGeometry relative="1" as="geometry"><Array as="points"><mxPoint x="723" y="460"/></Array></mxGeometry></mxCell><mxCell id="27" value="tiene" style="curved=1;startArrow=none;endArrow=block;exitX=1;exitY=0.89;entryX=0.5;entryY=0;" edge="1" parent="1" source="6" target="10"><mxGeometry relative="1" as="geometry"><Array as="points"><mxPoint x="950" y="460"/></Array></mxGeometry></mxCell><mxCell id="28" value="puede ser" style="curved=1;startArrow=none;endArrow=block;exitX=0;exitY=0.86;entryX=0.5;entryY=0;" edge="1" parent="1" source="10" target="11"><mxGeometry relative="1" as="geometry"><Array as="points"><mxPoint x="660" y="582"/></Array></mxGeometry></mxCell><mxCell id="29" value="puede ser" style="curved=1;startArrow=none;endArrow=block;exitX=0.77;exitY=1;entryX=0.5;entryY=0;" edge="1" parent="1" source="10" target="12"><mxGeometry relative="1" as="geometry"><Array as="points"><mxPoint x="1064" y="582"/></Array></mxGeometry></mxCell><mxCell id="30" value="tiene" style="curved=1;startArrow=none;endArrow=block;exitX=0.5;exitY=1;entryX=0.5;entryY=0;" edge="1" parent="1" source="4" target="13"><mxGeometry relative="1" as="geometry"><Array as="points"/></mxGeometry></mxCell><mxCell id="31" value="proporciona" style="curved=1;startArrow=none;endArrow=block;exitX=1;exitY=0.89;entryX=0.5;entryY=0;" edge="1" parent="1" source="4" target="14"><mxGeometry relative="1" as="geometry"><Array as="points"><mxPoint x="949" y="216"/></Array></mxGeometry></mxCell><mxCell id="32" value="afecta a" style="curved=1;startArrow=none;endArrow=block;exitX=0.5;exitY=1;entryX=0.5;entryY=0;" edge="1" parent="1" source="14" target="15"><mxGeometry relative="1" as="geometry"><Array as="points"/></mxGeometry></mxCell><mxCell id="33" value="ofrece" style="curved=1;startArrow=none;endArrow=block;exitX=0.5;exitY=1;entryX=0.5;entryY=0;" edge="1" parent="1" source="5" target="16"><mxGeometry relative="1" as="geometry"><Array as="points"/></mxGeometry></mxCell><mxCell id="34" value="gestiona" style="curved=1;startArrow=none;endArrow=block;exitX=0.41;exitY=1;entryX=0.5;entryY=0;" edge="1" parent="1" source="16" target="17"><mxGeometry relative="1" as="geometry"><Array as="points"><mxPoint x="70" y="582"/></Array></mxGeometry></mxCell><mxCell id="35" value="gestiona" style="curved=1;startArrow=none;endArrow=block;exitX=1;exitY=0.93;entryX=0.5;entryY=0;" edge="1" parent="1" source="16" target="18"><mxGeometry relative="1" as="geometry"><Array as="points"><mxPoint x="455" y="582"/></Array></mxGeometry></mxCell></root></mxGraphModel>